<svg xmlns="http://www.w3.org/2000/svg" viewBox="0 0 200 200">
  <!-- Background circle -->
  <circle cx="100" cy="100" r="90" fill="#fff8e1" stroke="#fb8c00" stroke-width="4"/>
  
  <!-- Star burst for "new" -->
  <path d="M100 40 L105 55 L120 45 L115 60 L135 65 L115 75 L125 90 L105 85 L100 100 L95 85 L75 90 L85 75 L65 65 L85 60 L80 45 L95 55 Z" fill="#ffca28"/>
  
  <!-- Feature blocks -->
  <rect x="60" y="110" width="25" height="25" rx="4" ry="4" fill="#ffffff" stroke="#fb8c00" stroke-width="2"/>
  <rect x="60" y="110" width="25" height="8" rx="2" ry="2" fill="#fb8c00"/>
  <circle cx="72.5" cy="125" r="5" fill="#fb8c00" fill-opacity="0.3" stroke="#fb8c00" stroke-width="1.5"/>
  
  <rect x="95" y="110" width="25" height="25" rx="4" ry="4" fill="#ffffff" stroke="#fb8c00" stroke-width="2"/>
  <rect x="95" y="110" width="25" height="8" rx="2" ry="2" fill="#fb8c00"/>
  <path d="M102 123 L107.5 128 L113 120" fill="none" stroke="#fb8c00" stroke-width="1.5"/>
  
  <rect x="130" y="110" width="25" height="25" rx="4" ry="4" fill="#ffffff" stroke="#fb8c00" stroke-width="2"/>
  <rect x="130" y="110" width="25" height="8" rx="2" ry="2" fill="#fb8c00"/>
  <path d="M137 125 L143 125 M140 122 L140 128" fill="none" stroke="#fb8c00" stroke-width="1.5"/>
  
  <!-- Puzzle piece for integration -->
  <path d="M80 80 C75 80, 75 75, 70 75 L70 95 C75 95, 75 90, 80 90 L90 90 C95 90, 95 95, 100 95 L100 75 C95 75, 95 80, 90 80 Z" fill="#fff3e0" stroke="#fb8c00" stroke-width="2"/>
  
  <!-- Gear for functionality -->
  <circle cx="122" cy="85" r="12" fill="#fff3e0" stroke="#fb8c00" stroke-width="2"/>
  <path d="M122 73 L122 75 M129 78 L127 80 M132 85 L130 85 M129 92 L127 90 M122 97 L122 95 M115 92 L117 90 M112 85 L114 85 M115 78 L117 80" fill="none" stroke="#fb8c00" stroke-width="2" stroke-linecap="round"/>
  <circle cx="122" cy="85" r="5" fill="#fb8c00"/>
  
  <!-- Text -->
  <text x="100" y="165" font-family="Arial, sans-serif" font-size="14" font-weight="bold" text-anchor="middle" fill="#fb8c00">NEW FEATURES</text>
</svg>
