<svg xmlns="http://www.w3.org/2000/svg" viewBox="0 0 200 200">
  <!-- Background circle -->
  <circle cx="100" cy="100" r="90" fill="#e8f5e9" stroke="#2e7d32" stroke-width="4"/>
  
  <!-- Calendar outline representing weekly -->
  <rect x="50" y="50" width="100" height="100" rx="5" ry="5" fill="#ffffff" stroke="#2e7d32" stroke-width="3"/>
  
  <!-- Calendar header bar -->
  <rect x="50" y="50" width="100" height="20" rx="5" ry="5" fill="#2e7d32"/>
  
  <!-- Calendar grid lines -->
  <line x1="50" y1="90" x2="150" y2="90" stroke="#c8e6c9" stroke-width="2"/>
  <line x1="50" y1="110" x2="150" y2="110" stroke="#c8e6c9" stroke-width="2"/>
  <line x1="50" y1="130" x2="150" y2="130" stroke="#c8e6c9" stroke-width="2"/>
  <line x1="71" y1="70" x2="71" y2="150" stroke="#c8e6c9" stroke-width="2"/>
  <line x1="92" y1="70" x2="92" y2="150" stroke="#c8e6c9" stroke-width="2"/>
  <line x1="113" y1="70" x2="113" y2="150" stroke="#c8e6c9" stroke-width="2"/>
  <line x1="134" y1="70" x2="134" y2="150" stroke="#c8e6c9" stroke-width="2"/>
  
  <!-- Presentation/demo element -->
  <rect x="60" y="95" width="25" height="30" rx="2" ry="2" fill="#a5d6a7" stroke="#2e7d32" stroke-width="1"/>
  <rect x="60" y="95" width="25" height="5" fill="#2e7d32"/>
  <line x1="65" y1="105" x2="80" y2="105" stroke="#2e7d32" stroke-width="1"/>
  <line x1="65" y1="110" x2="75" y2="110" stroke="#2e7d32" stroke-width="1"/>
  <line x1="65" y1="115" x2="78" y2="115" stroke="#2e7d32" stroke-width="1"/>
  
  <!-- Play button representing demo -->
  <circle cx="125" cy="110" r="20" fill="#4caf50" stroke="#2e7d32" stroke-width="2"/>
  <path d="M120 100 L135 110 L120 120 Z" fill="#ffffff"/>
  
  <!-- Week indication marker -->
  <circle cx="82" cy="80" r="7" fill="#ffeb3b" stroke="#2e7d32" stroke-width="1"/>
  <text x="82" y="83" font-family="Arial, sans-serif" font-size="8" font-weight="bold" text-anchor="middle" fill="#2e7d32">W</text>
  
  <!-- Text -->
  <text x="100" y="175" font-family="Arial, sans-serif" font-size="14" font-weight="bold" text-anchor="middle" fill="#2e7d32">WEEKLY DEMO</text>
</svg>
